<?xml version="1.0" encoding="UTF-8"?>
<!-- Generator: Adobe Illustrator 18.0.0, SVG Export Plug-In . SVG Version: 6.00 Build 0)  -->
<!DOCTYPE svg PUBLIC "-//W3C//DTD SVG 1.1//EN" "http://www.w3.org/Graphics/SVG/1.1/DTD/svg11.dtd">
<svg version="1.1" id="Layer_1" xmlns="http://www.w3.org/2000/svg" xmlns:xlink="http://www.w3.org/1999/xlink" x="0px" y="0px" viewBox="0 0 245 75" enable-background="new 0 0 245 75" xml:space="preserve">
<g id="Horizontal_1_">
	<path id="Autoatendimento_2_" fill="#404040" d="M92.2,54.9h-1.1c-1,1.5-2.1,3.1-3.1,4.8C87,61.4,86,63.2,85,64.9h1.1   c0.2-0.5,0.5-1,0.8-1.4c0.3-0.5,0.5-0.9,0.8-1.3h4.7c0.1,0.5,0.1,0.9,0.2,1.4c0,0.5,0.1,0.9,0.2,1.4h1c-0.2-2-0.5-3.8-0.7-5.5   C92.7,57.8,92.5,56.3,92.2,54.9z M88.1,61.4c0.5-0.9,1.1-1.8,1.6-2.7c0.6-0.9,1.1-1.8,1.7-2.7c0.2,0.9,0.3,1.8,0.4,2.7   c0.1,0.9,0.2,1.7,0.3,2.6H88.1z M101.3,62.1l1.1-4.6h-0.9l-1,3.9c-0.1,0.3-0.1,0.6-0.2,0.9c-0.1,0.3-0.1,0.6-0.1,0.9   c-0.3,0.3-0.6,0.6-1,0.8c-0.4,0.2-0.8,0.3-1.2,0.3c-0.3,0-0.5,0-0.7-0.1c-0.2-0.1-0.3-0.2-0.4-0.3c-0.1-0.1-0.2-0.3-0.2-0.4   s-0.1-0.3-0.1-0.5c0-0.3,0-0.7,0.1-1.1c0.1-0.4,0.2-0.7,0.3-1.1l0.8-3.3h-0.9l-0.9,3.7c-0.1,0.3-0.1,0.6-0.2,1   c0,0.3-0.1,0.6-0.1,0.9c0,0.3,0,0.6,0.1,0.8c0.1,0.3,0.2,0.5,0.4,0.7c0.2,0.2,0.4,0.3,0.7,0.4c0.3,0.1,0.6,0.2,1,0.2   c0.5,0,0.9-0.1,1.3-0.2c0.4-0.1,0.7-0.4,1.1-0.7c0,0.2,0.1,0.3,0.1,0.5c0,0.1,0.1,0.3,0.2,0.4l1-0.1c-0.1-0.3-0.2-0.5-0.3-0.8   c0-0.2-0.1-0.5-0.1-0.7c0-0.2,0-0.4,0.1-0.6C101.2,62.6,101.2,62.3,101.3,62.1z M106.5,55.1l-1,0.2l-1.6,6.7   c-0.1,0.5-0.2,1-0.2,1.4c0,0.3,0.1,0.6,0.2,0.8c0.1,0.2,0.2,0.4,0.4,0.5c0.2,0.1,0.4,0.2,0.6,0.3c0.2,0.1,0.5,0.1,0.7,0.1   c0.3,0,0.6,0,1-0.1c0.3-0.1,0.6-0.2,0.9-0.3l-0.1-0.9c-0.3,0.1-0.5,0.2-0.7,0.3c-0.2,0.1-0.5,0.1-0.8,0.1c-0.3,0-0.6-0.1-0.8-0.3   c-0.2-0.2-0.3-0.5-0.3-0.9c0-0.2,0-0.4,0.1-0.6c0-0.2,0.1-0.4,0.1-0.6l0.9-3.7h2.7l0.2-0.8H106L106.5,55.1z M114.9,57.9   c-0.2-0.2-0.5-0.4-0.8-0.5c-0.3-0.1-0.6-0.2-1-0.2c-0.5,0-1,0.1-1.4,0.3c-0.5,0.2-0.9,0.5-1.3,1c-0.4,0.4-0.7,1-1,1.7   c-0.3,0.7-0.4,1.5-0.4,2.4c0,0.4,0.1,0.8,0.2,1.1c0.1,0.3,0.3,0.6,0.6,0.8c0.2,0.2,0.5,0.4,0.8,0.5c0.3,0.1,0.6,0.2,1,0.2   c0.5,0,1-0.1,1.4-0.3c0.5-0.2,0.9-0.5,1.3-1c0.4-0.4,0.7-1,1-1.7c0.3-0.7,0.4-1.5,0.4-2.4c0-0.4-0.1-0.8-0.2-1.1   C115.4,58.4,115.2,58.1,114.9,57.9z M114.4,61.8c-0.2,0.6-0.4,1-0.8,1.4c-0.3,0.4-0.6,0.6-1,0.8c-0.4,0.2-0.7,0.3-1.1,0.3   c-0.4,0-0.8-0.1-1.1-0.4c-0.3-0.3-0.5-0.7-0.5-1.3c0-0.7,0.1-1.4,0.3-1.9c0.2-0.6,0.4-1,0.8-1.4c0.3-0.4,0.6-0.6,1-0.8   c0.4-0.2,0.7-0.3,1.1-0.3c0.4,0,0.8,0.1,1.1,0.4c0.3,0.3,0.5,0.7,0.5,1.3C114.7,60.6,114.6,61.3,114.4,61.8z M122.8,62.1l1.1-4.5   c-0.6-0.2-1.1-0.3-1.7-0.3c-0.7,0-1.4,0.1-2,0.4c-0.6,0.2-1.1,0.6-1.6,1c-0.5,0.4-0.8,1-1.1,1.6c-0.3,0.6-0.4,1.3-0.4,2.1   c0,0.5,0.1,0.9,0.2,1.3c0.1,0.4,0.3,0.6,0.5,0.9c0.2,0.2,0.5,0.4,0.7,0.5c0.3,0.1,0.6,0.2,0.9,0.2c0.4,0,0.8-0.1,1.2-0.2   s0.7-0.4,1.1-0.7c0,0.2,0.1,0.3,0.1,0.5c0,0.1,0.1,0.3,0.2,0.4l1-0.1c-0.1-0.3-0.2-0.5-0.3-0.8c0-0.2-0.1-0.5-0.1-0.7   c0-0.2,0-0.4,0.1-0.6C122.7,62.6,122.7,62.3,122.8,62.1z M122,61.4c-0.1,0.3-0.1,0.6-0.2,0.9c-0.1,0.3-0.1,0.6-0.1,0.9   c-0.3,0.3-0.6,0.6-1,0.8c-0.3,0.2-0.7,0.3-1.1,0.3c-0.2,0-0.4,0-0.6-0.1c-0.2-0.1-0.3-0.2-0.5-0.3c-0.1-0.2-0.2-0.4-0.3-0.6   c-0.1-0.3-0.1-0.6-0.1-1c0-0.5,0.1-1,0.3-1.5c0.2-0.5,0.4-0.9,0.7-1.3c0.3-0.4,0.7-0.7,1.2-0.9c0.5-0.2,1-0.3,1.6-0.3   c0.2,0,0.3,0,0.5,0c0.1,0,0.3,0,0.5,0.1L122,61.4z M128,55.1l-1,0.2l-1.6,6.7c-0.1,0.5-0.2,1-0.2,1.4c0,0.3,0.1,0.6,0.2,0.8   c0.1,0.2,0.2,0.4,0.4,0.5c0.2,0.1,0.4,0.2,0.6,0.3c0.2,0.1,0.5,0.1,0.7,0.1c0.3,0,0.6,0,1-0.1c0.3-0.1,0.6-0.2,0.9-0.3l-0.1-0.9   c-0.3,0.1-0.5,0.2-0.7,0.3c-0.2,0.1-0.5,0.1-0.8,0.1c-0.3,0-0.6-0.1-0.8-0.3c-0.2-0.2-0.3-0.5-0.3-0.9c0-0.2,0-0.4,0.1-0.6   c0-0.2,0.1-0.4,0.1-0.6l0.9-3.7h2.7l0.2-0.8h-2.6L128,55.1z M134.8,57.3c-0.7,0-1.3,0.1-1.8,0.4c-0.5,0.3-1,0.7-1.4,1.2   c-0.4,0.5-0.6,1-0.8,1.6c-0.2,0.6-0.3,1.2-0.3,1.8c0,0.4,0,0.8,0.1,1.1c0.1,0.3,0.3,0.6,0.5,0.9c0.2,0.2,0.5,0.4,0.9,0.6   c0.4,0.1,0.8,0.2,1.3,0.2c0.4,0,0.8-0.1,1.2-0.2c0.4-0.1,0.8-0.2,1.1-0.4l-0.1-0.9c-0.3,0.2-0.6,0.3-1,0.4c-0.3,0.1-0.7,0.1-1,0.1   c-0.4,0-0.8-0.1-1.1-0.2c-0.3-0.1-0.5-0.2-0.6-0.4c-0.2-0.2-0.3-0.4-0.3-0.6c-0.1-0.2-0.1-0.5-0.1-0.8v-0.3c0.8,0,1.6-0.1,2.2-0.2   c0.7-0.1,1.2-0.2,1.7-0.4c0.5-0.2,0.9-0.5,1.1-0.8c0.3-0.3,0.4-0.8,0.4-1.3c0-0.6-0.2-1-0.5-1.4C136,57.5,135.5,57.3,134.8,57.3z    M135.8,60c-0.1,0.2-0.4,0.4-0.7,0.6c-0.3,0.2-0.8,0.3-1.4,0.4c-0.6,0.1-1.3,0.1-2.1,0.2c0.1-0.4,0.2-0.8,0.4-1.1   c0.2-0.4,0.4-0.7,0.7-0.9c0.3-0.3,0.6-0.5,0.9-0.6c0.3-0.2,0.7-0.2,1.1-0.2c0.4,0,0.7,0.1,0.9,0.3c0.2,0.2,0.3,0.5,0.3,0.8   C136,59.5,135.9,59.8,135.8,60z M143.8,57.8c-0.2-0.2-0.5-0.3-0.8-0.4c-0.3-0.1-0.6-0.1-1-0.1c-0.4,0-0.8,0-1.3,0.1   c-0.4,0.1-0.8,0.2-1.2,0.3l-1.7,7.2h0.9l1.6-6.6c0.3-0.1,0.5-0.1,0.8-0.1s0.5-0.1,0.8-0.1c0.2,0,0.5,0,0.7,0.1   c0.2,0,0.4,0.1,0.6,0.2c0.2,0.1,0.3,0.3,0.4,0.5c0.1,0.2,0.1,0.4,0.1,0.7c0,0.3,0,0.6-0.1,0.9c-0.1,0.3-0.1,0.7-0.2,1l-0.8,3.3h0.9   l0.9-3.7c0.1-0.3,0.1-0.5,0.2-0.8s0.1-0.5,0.1-0.8c0-0.4-0.1-0.8-0.2-1.1C144.2,58.2,144,58,143.8,57.8z M151.8,62.4l2.1-8.7   l-1,0.2l-0.8,3.5c-0.3-0.1-0.6-0.1-0.9-0.1c-0.8,0-1.6,0.1-2.2,0.4s-1.1,0.7-1.6,1.2c-0.4,0.5-0.7,1-0.9,1.6   c-0.2,0.6-0.3,1.2-0.3,1.8c0,0.4,0,0.7,0.1,1.1c0.1,0.3,0.2,0.6,0.4,0.9c0.2,0.3,0.4,0.5,0.7,0.6c0.3,0.1,0.6,0.2,1.1,0.2   c0.3,0,0.6,0,0.8-0.1c0.2-0.1,0.5-0.1,0.7-0.2c0.2-0.1,0.4-0.2,0.5-0.3c0.1-0.1,0.3-0.2,0.3-0.3c0,0.2,0.1,0.3,0.1,0.5   c0,0.2,0.1,0.3,0.1,0.4l1-0.1c-0.1-0.3-0.2-0.5-0.3-0.8c0-0.3-0.1-0.5-0.1-0.8c0-0.2,0-0.3,0-0.5C151.8,62.7,151.8,62.5,151.8,62.4   z M151.1,61.4c-0.1,0.3-0.2,0.7-0.2,1c-0.1,0.3-0.1,0.6-0.1,0.8c-0.1,0.1-0.2,0.2-0.4,0.4c-0.2,0.1-0.3,0.2-0.5,0.3   c-0.2,0.1-0.4,0.2-0.6,0.3c-0.2,0.1-0.4,0.1-0.7,0.1c-0.3,0-0.5-0.1-0.7-0.2c-0.2-0.1-0.3-0.3-0.4-0.4c-0.1-0.2-0.2-0.4-0.3-0.7   c-0.1-0.2-0.1-0.5-0.1-0.8c0-0.5,0.1-0.9,0.2-1.4c0.1-0.5,0.4-0.9,0.7-1.3c0.3-0.4,0.7-0.7,1.2-1c0.5-0.2,1.1-0.4,1.7-0.4   c0.1,0,0.3,0,0.4,0c0.2,0,0.3,0,0.4,0.1L151.1,61.4z M156.9,54.5c-0.2,0-0.3,0.1-0.5,0.2c-0.1,0.1-0.2,0.3-0.2,0.6   c0,0.2,0,0.3,0.1,0.4c0.1,0.1,0.2,0.2,0.4,0.2c0.2,0,0.3-0.1,0.5-0.2c0.2-0.1,0.2-0.3,0.2-0.5c0-0.2-0.1-0.4-0.2-0.5   C157.2,54.6,157.1,54.5,156.9,54.5z M154,64.9h0.9l1.8-7.5h-0.9L154,64.9z M167.7,57.8c-0.2-0.2-0.5-0.3-0.7-0.4   c-0.3-0.1-0.6-0.1-0.9-0.1c-0.4,0-0.7,0.1-1.1,0.2c-0.4,0.1-0.8,0.3-1.3,0.6c-0.2-0.3-0.5-0.5-0.8-0.6c-0.3-0.1-0.7-0.2-1.1-0.2   c-0.2,0-0.4,0-0.6,0c-0.2,0-0.4,0.1-0.6,0.1c-0.2,0-0.4,0.1-0.6,0.1c-0.2,0-0.3,0.1-0.5,0.1l-1.7,7.2h0.9l1.6-6.6   c0.2-0.1,0.4-0.1,0.7-0.1c0.3,0,0.5-0.1,0.7-0.1c0.2,0,0.4,0,0.6,0.1c0.2,0,0.3,0.1,0.5,0.2c0.1,0.1,0.2,0.3,0.3,0.5   c0.1,0.2,0.1,0.4,0.1,0.7c0,0.3,0,0.6-0.1,0.9c-0.1,0.3-0.1,0.7-0.2,1l-0.8,3.3h0.9l0.9-3.7c0.1-0.3,0.1-0.5,0.2-0.8   s0.1-0.5,0.1-0.8c0-0.3,0-0.6-0.1-0.8c0.5-0.3,0.8-0.5,1.2-0.5c0.3-0.1,0.6-0.1,0.8-0.1c0.2,0,0.4,0,0.6,0.1c0.2,0,0.3,0.1,0.5,0.2   c0.1,0.1,0.2,0.3,0.3,0.5c0.1,0.2,0.1,0.4,0.1,0.7c0,0.3,0,0.6-0.1,0.9c-0.1,0.3-0.1,0.7-0.2,1l-0.8,3.3h0.9l0.9-3.7   c0.1-0.3,0.1-0.5,0.2-0.8c0-0.3,0.1-0.5,0.1-0.8c0-0.5-0.1-0.8-0.2-1.1C168.1,58.2,167.9,58,167.7,57.8z M174.5,57.3   c-0.7,0-1.3,0.1-1.8,0.4c-0.5,0.3-1,0.7-1.4,1.2c-0.4,0.5-0.6,1-0.8,1.6c-0.2,0.6-0.3,1.2-0.3,1.8c0,0.4,0,0.8,0.1,1.1   c0.1,0.3,0.3,0.6,0.5,0.9c0.2,0.2,0.5,0.4,0.9,0.6c0.4,0.1,0.8,0.2,1.3,0.2c0.4,0,0.8-0.1,1.2-0.2c0.4-0.1,0.8-0.2,1.1-0.4   l-0.1-0.9c-0.3,0.2-0.6,0.3-1,0.4c-0.3,0.1-0.7,0.1-1,0.1c-0.4,0-0.8-0.1-1.1-0.2c-0.3-0.1-0.5-0.2-0.6-0.4   c-0.2-0.2-0.3-0.4-0.3-0.6c-0.1-0.2-0.1-0.5-0.1-0.8v-0.3c0.8,0,1.6-0.1,2.2-0.2c0.7-0.1,1.2-0.2,1.7-0.4c0.5-0.2,0.9-0.5,1.1-0.8   c0.3-0.3,0.4-0.8,0.4-1.3c0-0.6-0.2-1-0.5-1.4C175.7,57.5,175.1,57.3,174.5,57.3z M175.4,60c-0.1,0.2-0.4,0.4-0.7,0.6   c-0.3,0.2-0.8,0.3-1.4,0.4c-0.6,0.1-1.3,0.1-2.1,0.2c0.1-0.4,0.2-0.8,0.4-1.1c0.2-0.4,0.4-0.7,0.7-0.9c0.3-0.3,0.6-0.5,0.9-0.6   c0.3-0.2,0.7-0.2,1.1-0.2c0.4,0,0.7,0.1,0.9,0.3c0.2,0.2,0.3,0.5,0.3,0.8C175.6,59.5,175.5,59.8,175.4,60z M183.4,57.8   c-0.2-0.2-0.5-0.3-0.8-0.4c-0.3-0.1-0.6-0.1-1-0.1c-0.4,0-0.8,0-1.3,0.1c-0.4,0.1-0.8,0.2-1.2,0.3l-1.7,7.2h0.9l1.6-6.6   c0.3-0.1,0.5-0.1,0.8-0.1s0.5-0.1,0.8-0.1c0.2,0,0.5,0,0.7,0.1c0.2,0,0.4,0.1,0.6,0.2c0.2,0.1,0.3,0.3,0.4,0.5   c0.1,0.2,0.1,0.4,0.1,0.7c0,0.3,0,0.6-0.1,0.9c-0.1,0.3-0.1,0.7-0.2,1l-0.8,3.3h0.9l0.9-3.7c0.1-0.3,0.1-0.5,0.2-0.8   s0.1-0.5,0.1-0.8c0-0.4-0.1-0.8-0.2-1.1C183.8,58.2,183.6,58,183.4,57.8z M188.8,55.1l-1,0.2l-1.6,6.7c-0.1,0.5-0.2,1-0.2,1.4   c0,0.3,0.1,0.6,0.2,0.8c0.1,0.2,0.2,0.4,0.4,0.5c0.2,0.1,0.4,0.2,0.6,0.3c0.2,0.1,0.5,0.1,0.7,0.1c0.3,0,0.6,0,1-0.1   c0.3-0.1,0.6-0.2,0.9-0.3l-0.1-0.9c-0.3,0.1-0.5,0.2-0.7,0.3c-0.2,0.1-0.5,0.1-0.8,0.1c-0.3,0-0.6-0.1-0.8-0.3   c-0.2-0.2-0.3-0.5-0.3-0.9c0-0.2,0-0.4,0.1-0.6c0-0.2,0.1-0.4,0.1-0.6l0.9-3.7h2.7l0.2-0.8h-2.6L188.8,55.1z M197.7,58.7   c-0.1-0.3-0.3-0.6-0.6-0.8c-0.2-0.2-0.5-0.4-0.8-0.5c-0.3-0.1-0.6-0.2-1-0.2c-0.5,0-1,0.1-1.4,0.3c-0.5,0.2-0.9,0.5-1.3,1   c-0.4,0.4-0.7,1-1,1.7c-0.3,0.7-0.4,1.5-0.4,2.4c0,0.4,0.1,0.8,0.2,1.1c0.1,0.3,0.3,0.6,0.6,0.8c0.2,0.2,0.5,0.4,0.8,0.5   c0.3,0.1,0.6,0.2,1,0.2c0.5,0,1-0.1,1.4-0.3c0.5-0.2,0.9-0.5,1.3-1c0.4-0.4,0.7-1,1-1.7c0.3-0.7,0.4-1.5,0.4-2.4   C197.9,59.4,197.9,59,197.7,58.7z M196.7,61.8c-0.2,0.6-0.4,1-0.8,1.4c-0.3,0.4-0.6,0.6-1,0.8c-0.4,0.2-0.7,0.3-1.1,0.3   c-0.4,0-0.8-0.1-1.1-0.4c-0.3-0.3-0.5-0.7-0.5-1.3c0-0.7,0.1-1.4,0.3-1.9c0.2-0.6,0.4-1,0.8-1.4c0.3-0.4,0.6-0.6,1-0.8   c0.4-0.2,0.7-0.3,1.1-0.3c0.4,0,0.8,0.1,1.1,0.4c0.3,0.3,0.5,0.7,0.5,1.3C197,60.6,196.9,61.3,196.7,61.8z"/>
	<path id="Videosoft_2_" fill="#404040" d="M97.8,27.5c-0.3,2.9-0.8,5.5-1.5,7.8c-0.7,2.4-1.6,4.7-2.8,7c-0.3-2.5-0.7-5-1.2-7.5   c-0.6-2.5-1.2-4.9-1.9-7.3H85c1,3,1.9,6.2,2.7,9.5c0.8,3.4,1.4,6.9,1.9,10.6h5.9c1.9-3,3.5-6.2,5-9.5c1.4-3.3,2.4-6.9,2.9-10.6   H97.8z M112.7,19.3c-0.5-0.5-1.2-0.8-2-0.8c-1.1,0-2,0.3-2.6,1c-0.6,0.7-0.9,1.5-0.9,2.5c0,0.8,0.2,1.4,0.7,1.9   c0.5,0.5,1.2,0.8,2,0.8c0.6,0,1.1-0.1,1.5-0.3c0.5-0.2,0.8-0.5,1.1-0.8c0.3-0.3,0.5-0.7,0.7-1.1c0.2-0.4,0.2-0.8,0.2-1.3   C113.5,20.5,113.2,19.8,112.7,19.3z M103,47.6h5.5l3.5-20.1h-5.5L103,47.6z M130.3,18.4l-1.7,9.2c-0.5-0.2-1.1-0.3-1.8-0.4   c-0.7-0.1-1.4-0.1-2-0.1c-2,0-3.7,0.4-5.1,1.1c-1.5,0.7-2.7,1.7-3.6,3c-0.9,1.2-1.7,2.7-2.1,4.3c-0.5,1.6-0.7,3.2-0.7,5   c0,0.9,0.1,1.9,0.3,2.8c0.2,0.9,0.5,1.7,0.9,2.5c0.4,0.7,1,1.3,1.8,1.8c0.7,0.4,1.6,0.7,2.7,0.7c0.7,0,1.5-0.1,2.1-0.4   c0.7-0.3,1.3-0.6,1.9-1c0.6-0.4,1.1-0.9,1.7-1.5c0.5-0.6,1-1.1,1.3-1.7l-0.7,4.2h5.4l5.1-29.1H130.3z M126.8,38.2   c-0.4,0.7-0.8,1.4-1.3,2c-0.5,0.7-0.9,1.3-1.4,1.8c-0.5,0.5-1,0.9-1.5,1.3c-0.5,0.3-1,0.5-1.5,0.5c-0.8,0-1.4-0.4-1.7-1.1   c-0.3-0.7-0.5-1.6-0.5-2.5c0-1.1,0.1-2.1,0.4-3.2c0.3-1.1,0.7-2,1.2-2.8c0.5-0.8,1.2-1.5,2-2c0.8-0.5,1.8-0.8,2.9-0.8   c1,0,1.9,0.1,2.6,0.4L126.8,38.2z M151.3,28.5c-0.5-0.5-1.1-0.8-1.9-1.1c-0.8-0.3-1.6-0.4-2.6-0.4c-1.7,0-3.3,0.4-4.7,1.1   c-1.4,0.7-2.6,1.7-3.6,2.8c-1,1.2-1.7,2.6-2.3,4.2c-0.5,1.6-0.8,3.3-0.8,5.2c0,1.1,0.2,2.1,0.5,3c0.3,0.9,0.8,1.7,1.4,2.4   c0.6,0.7,1.4,1.2,2.4,1.6c1,0.4,2.1,0.6,3.4,0.6c1.4,0,2.8-0.2,4.1-0.6c1.3-0.4,2.5-0.9,3.5-1.5l-1-3.6c-1,0.6-2,1-3,1.3   c-1,0.3-1.9,0.4-2.8,0.4c-1.2,0-2-0.3-2.5-0.9c-0.4-0.6-0.6-1.4-0.6-2.2c0-0.2,0-0.3,0-0.5c0-0.2,0-0.4,0.1-0.6   c1.5,0,3-0.2,4.4-0.5c1.4-0.3,2.7-0.7,3.9-1.3c1.1-0.6,2-1.4,2.7-2.3c0.7-0.9,1.1-2.1,1.1-3.5c0-0.7-0.1-1.3-0.4-2   C152.2,29.5,151.8,29,151.3,28.5z M147.3,34c-0.4,0.4-0.9,0.8-1.5,1c-0.6,0.3-1.3,0.5-2.1,0.6c-0.8,0.1-1.5,0.2-2.3,0.2   c0.2-0.6,0.4-1.2,0.7-1.8c0.3-0.6,0.6-1.1,1-1.6c0.4-0.5,0.8-0.8,1.3-1.1c0.5-0.3,1-0.4,1.5-0.4c1.2,0,1.9,0.5,1.9,1.5   C147.9,33.1,147.7,33.6,147.3,34z M171.6,29.5c-0.7-0.8-1.6-1.3-2.7-1.8c-1.1-0.4-2.3-0.6-3.7-0.6c-1.8,0-3.3,0.3-4.7,0.9   c-1.4,0.6-2.6,1.5-3.6,2.6c-1,1.1-1.7,2.4-2.2,4c-0.5,1.5-0.8,3.2-0.8,5c0,1.2,0.2,2.3,0.6,3.3c0.4,1,0.9,1.9,1.6,2.6   c0.7,0.7,1.6,1.3,2.6,1.8c1,0.4,2.2,0.6,3.5,0.6c1.9,0,3.5-0.4,5-1.1c1.4-0.7,2.7-1.7,3.6-2.8c1-1.2,1.7-2.5,2.2-4   c0.5-1.5,0.8-3.1,0.8-4.6c0-1.2-0.2-2.2-0.6-3.3C172.8,31.1,172.3,30.2,171.6,29.5z M167.9,38.5c-0.2,1-0.6,1.8-1,2.6   s-1,1.4-1.7,1.9c-0.7,0.5-1.5,0.7-2.4,0.7c-1.2,0-2-0.4-2.6-1.2c-0.5-0.8-0.8-1.8-0.8-3c0-1,0.1-2,0.3-3c0.2-1,0.6-1.9,1-2.7   c0.5-0.8,1-1.4,1.7-1.9c0.7-0.5,1.4-0.7,2.3-0.7c0.6,0,1.2,0.1,1.6,0.4c0.4,0.2,0.8,0.6,1.1,1c0.3,0.4,0.5,0.9,0.6,1.4   c0.1,0.5,0.2,1.1,0.2,1.6C168.3,36.6,168.2,37.5,167.9,38.5z M182.6,31.4c0.5-0.2,1.1-0.2,1.7-0.2c0.9,0,1.7,0.1,2.6,0.4   c0.9,0.3,1.7,0.6,2.5,1l1-4c-1.9-1-4.1-1.5-6.4-1.5c-2.4,0-4.3,0.5-5.6,1.6c-1.3,1.1-1.9,2.6-1.9,4.6c0,0.8,0.1,1.5,0.4,2.1   c0.2,0.6,0.6,1.1,1,1.6c0.4,0.5,1,0.9,1.6,1.4c0.6,0.4,1.3,0.9,2,1.3c0.7,0.5,1.4,0.9,2,1.2c0.6,0.3,0.8,0.8,0.8,1.4   c0,0.7-0.3,1.1-1,1.3c-0.6,0.2-1.4,0.4-2.3,0.4c-1,0-1.9-0.1-2.8-0.4c-0.9-0.3-1.7-0.6-2.4-0.9l-1.1,4.1c0.9,0.4,1.9,0.7,3.1,1   c1.2,0.2,2.4,0.4,3.5,0.4c1.2,0,2.2-0.1,3.3-0.4c1-0.3,1.9-0.7,2.6-1.3c0.7-0.6,1.3-1.3,1.8-2.1c0.4-0.8,0.7-1.8,0.7-2.8   c0-0.8-0.2-1.6-0.6-2.2c-0.4-0.7-0.8-1.3-1.4-1.8c-0.5-0.5-1.1-1-1.7-1.4c-0.6-0.4-1.2-0.7-1.7-1.1c-0.7-0.4-1.3-0.8-1.8-1.2   c-0.5-0.3-0.7-0.7-0.7-1.2C181.9,32,182.2,31.6,182.6,31.4z M208.8,44c1-1.2,1.7-2.5,2.2-4c0.5-1.5,0.8-3.1,0.8-4.6   c0-1.2-0.2-2.2-0.6-3.3c-0.4-1-0.9-1.9-1.7-2.7c-0.7-0.8-1.6-1.3-2.7-1.8c-1.1-0.4-2.3-0.6-3.7-0.6c-1.8,0-3.3,0.3-4.7,0.9   c-1.4,0.6-2.6,1.5-3.6,2.6c-1,1.1-1.7,2.4-2.2,4c-0.5,1.5-0.8,3.2-0.8,5c0,1.2,0.2,2.3,0.6,3.3c0.4,1,0.9,1.9,1.6,2.6   c0.7,0.7,1.6,1.3,2.6,1.8c1,0.4,2.2,0.6,3.5,0.6c1.9,0,3.5-0.4,5-1.1C206.6,46.2,207.8,45.2,208.8,44z M205.9,38.5   c-0.2,1-0.6,1.8-1,2.6s-1,1.4-1.7,1.9c-0.7,0.5-1.5,0.7-2.4,0.7c-1.2,0-2-0.4-2.6-1.2c-0.5-0.8-0.8-1.8-0.8-3c0-1,0.1-2,0.3-3   c0.2-1,0.6-1.9,1-2.7c0.5-0.8,1-1.4,1.7-1.9c0.7-0.5,1.4-0.7,2.3-0.7c0.6,0,1.2,0.1,1.6,0.4c0.4,0.2,0.8,0.6,1.1,1   c0.3,0.4,0.5,0.9,0.6,1.4c0.1,0.5,0.2,1.1,0.2,1.6C206.3,36.6,206.2,37.5,205.9,38.5z M223.5,26.5c0.5-3,2-4.5,4.4-4.5   c1.2,0,2.3,0.2,3.3,0.7l0.9-4.1c-0.7-0.3-1.4-0.6-2.3-0.7c-0.9-0.2-1.7-0.2-2.5-0.2c-2.5,0-4.5,0.7-6,2.1c-1.5,1.4-2.6,3.6-3.1,6.7   l-0.2,1h-4l-0.7,4.2h4l-2.3,12.9c-0.2,1.1-0.4,2.1-0.7,3c-0.2,0.9-0.6,1.7-0.9,2.4c-0.4,0.7-0.9,1.2-1.5,1.6   c-0.6,0.4-1.4,0.6-2.3,0.6c-0.5,0-1,0-1.5-0.1c-0.5-0.1-1-0.2-1.3-0.3l-0.8,4c0.6,0.2,1.3,0.4,2.1,0.5c0.8,0.1,1.5,0.2,2.2,0.2   c1.7,0,3.2-0.3,4.4-0.9c1.2-0.6,2.1-1.4,2.9-2.5c0.8-1.1,1.4-2.3,1.8-3.8c0.4-1.5,0.8-3,1.1-4.7l2.2-12.9h5.7l0.7-4.2h-5.7   L223.5,26.5z M238.1,31.8h6.1l0.7-4.3h-6.1l0.9-5.4h-5.5l-0.9,5.4h-3.5l-0.7,4.3h3.5l-1.5,8.8c-0.1,0.3-0.1,0.7-0.1,1   c0,0.3-0.1,0.7-0.1,1c0,1.7,0.5,3,1.4,4c1,1,2.5,1.5,4.6,1.5c1,0,2-0.1,2.9-0.4c0.9-0.2,1.7-0.5,2.5-0.9l-0.2-3.8   c-0.6,0.2-1.2,0.4-1.9,0.5c-0.6,0.1-1.3,0.2-1.9,0.2c-0.9,0-1.4-0.3-1.6-0.8c-0.2-0.5-0.2-1.1-0.1-1.9L238.1,31.8z"/>
	<g id="Símbolo_1_">
		<linearGradient id="SVGID_1_" gradientUnits="userSpaceOnUse" x1="47.55" y1="10.0452" x2="10.0509" y2="74.9956">
			<stop offset="0" style="stop-color:#FFDD00"/>
			<stop offset="1" style="stop-color:#F7941E"/>
		</linearGradient>
		<path fill="url(#SVGID_1_)" d="M10.1,0C3.7,11,0,23.8,0,37.5S3.7,64,10.1,75C37.8,75,62,59.9,75,37.5C62,15.1,37.8,0,10.1,0z     M54.8,40.2c-12.3,3.4-23.4,10-32.3,18.7c-1.7-0.8-3.3-1.8-4.8-2.8c1.5-6,2.4-12.2,2.4-18.6s-0.8-12.7-2.4-18.6    c1.6-1,3.2-1.9,4.8-2.8c8.9,8.7,19.9,15.2,32.3,18.7c0,0.9,0.1,1.8,0.1,2.7C54.9,38.4,54.9,39.3,54.8,40.2z"/>
		<linearGradient id="SVGID_2_" gradientUnits="userSpaceOnUse" x1="47.5466" y1="10.0513" x2="10.0983" y2="74.9136">
			<stop offset="0" style="stop-color:#F7941E"/>
			<stop offset="1" style="stop-color:#FFDD00"/>
		</linearGradient>
		<path fill="url(#SVGID_2_)" d="M47.5,10c-9,0-17.5,2.2-25,6c8.9,8.7,19.9,15.2,32.3,18.7C54.4,25.8,51.8,17.4,47.5,10z M0,37.5    C4.4,45,10.5,51.4,17.7,56.1c1.5-6,2.4-12.2,2.4-18.6s-0.8-12.7-2.4-18.6C10.5,23.6,4.4,30,0,37.5z M47.5,65    c4.2-7.3,6.8-15.7,7.3-24.7c-12.3,3.4-23.4,10-32.3,18.7C30,62.8,38.5,65,47.5,65z"/>
		<linearGradient id="SVGID_3_" gradientUnits="userSpaceOnUse" x1="47.5466" y1="10.0513" x2="20.0957" y2="57.5978">
			<stop offset="0" style="stop-color:#F7941E"/>
			<stop offset="1" style="stop-color:#FFDD00"/>
		</linearGradient>
		<path fill="url(#SVGID_3_)" d="M47.4,10.3c4.7,8.2,7.2,17.6,7.2,27.1c0,9.5-2.5,18.9-7.2,27.2c-19.3-0.1-37.3-10.5-47-27.2    C10.1,20.8,28.1,10.4,47.4,10.3 M47.5,10c-20.3,0-38,11-47.5,27.5C9.5,53.9,27.2,64.9,47.5,65c4.7-8.1,7.4-17.4,7.4-27.5    C54.9,27.5,52.2,18.1,47.5,10L47.5,10z"/>
	</g>
</g>
</svg>